<svg width="84" height="83" viewBox="0 0 84 83" fill="none" xmlns="http://www.w3.org/2000/svg">
<path d="M81.7089 31.4213C81.4437 29.973 80.5824 28.7127 79.2835 27.8733C78.6694 27.4768 78.0283 27.1318 77.3743 26.8125C80.2181 25.9551 82.171 23.0985 81.7282 20.1697C81.5106 18.7356 80.7485 17.5023 79.5809 16.6964C79.447 16.6038 79.2976 16.5445 79.1573 16.466C79.1547 16.4493 79.156 16.4325 79.1535 16.4158C78.9359 14.9817 78.1738 13.7484 77.0061 12.9425C75.7947 12.1057 74.2924 11.8277 72.7849 12.1508C72.1232 12.2924 71.4692 12.4726 70.8242 12.6889C71.0405 12.0439 71.2207 11.3899 71.3624 10.7282C71.688 9.21688 71.4061 7.71711 70.5706 6.50699C69.7647 5.33935 68.5314 4.57724 67.0935 4.35839C67.078 4.35581 67.0626 4.3571 67.0458 4.35452C66.9673 4.2142 66.9081 4.06487 66.8154 3.93227C66.0095 2.76463 64.7762 2.00252 63.3408 1.78495C60.4172 1.33953 57.5567 3.29374 56.6993 6.14009C56.38 5.48611 56.035 4.84501 55.6385 4.23094C54.7992 2.93199 53.5388 2.07075 52.0906 1.80555C50.6938 1.55194 49.2841 1.88408 48.1178 2.74404C45.5199 4.65577 44.9637 8.5333 46.9012 11.211C48.1165 12.8897 49.1773 14.7204 50.0501 16.6501L50.3204 17.2474C45.1066 16.7467 39.9546 18.5683 36.1698 22.3531C35.2545 23.2684 34.437 24.288 33.7405 25.3848L2.69969 74.3264C1.51274 76.1983 1.77922 78.5979 3.34594 80.1633C4.25739 81.0761 5.45206 81.5472 6.6609 81.5472C7.52729 81.5472 8.40141 81.3052 9.18155 80.8096L58.1296 49.77C59.2264 49.0749 60.246 48.2574 61.1665 47.3356C64.9461 43.5559 66.7652 38.4065 66.2644 33.1901L66.863 33.4605C68.7928 34.3346 70.6234 35.3941 72.3034 36.6106C73.3822 37.3908 74.6554 37.7654 75.9183 37.7654C77.7863 37.7654 79.6285 36.9415 80.7704 35.3915C81.6303 34.2277 81.9638 32.8155 81.7089 31.4213ZM76.1951 24.4773C75.0185 24.6639 73.8392 24.9278 72.678 25.2445C70.5462 24.8351 68.3293 24.7759 66.1151 25.1081L65.9052 25.1402L66.1653 24.7875C68.5495 21.5575 72.0961 19.2364 75.9003 18.4215C76.7113 18.2451 77.4979 18.3868 78.1197 18.8154C78.6952 19.2145 79.0736 19.8325 79.1843 20.5572C79.4547 22.3454 78.0579 24.1773 76.1951 24.4773ZM73.3256 14.6663C74.1379 14.4899 74.9245 14.6315 75.545 15.0602C75.8308 15.2585 76.0676 15.5108 76.2479 15.803C75.9531 15.8198 75.6583 15.8416 75.3609 15.9047C70.8886 16.8638 66.8875 19.4759 64.0952 23.2594L62.3071 25.6835L59.1775 26.156L69.0786 16.2549C70.4303 15.5185 71.858 14.9804 73.3256 14.6663ZM67.6058 8.15095C67.6702 7.85357 67.6921 7.55876 67.7088 7.26525C68.0011 7.44548 68.2534 7.68106 68.4503 7.96686C68.8777 8.58736 69.0181 9.37523 68.8443 10.1863C68.5276 11.6577 67.9908 13.0854 67.2544 14.4358L57.3559 24.3344L57.8283 21.2048L60.2524 19.4166C64.0347 16.6244 66.6467 12.6232 67.6058 8.15095ZM59.0333 7.31674C59.332 5.45393 61.1729 4.06229 62.9533 4.32749C63.6781 4.4382 64.2973 4.81669 64.6964 5.39214C65.1238 6.01264 65.2641 6.80051 65.0903 7.61155C64.2741 11.4144 61.953 14.9624 58.7243 17.3466L58.3716 17.6066L58.4038 17.3968C58.7372 15.1825 58.678 12.9657 58.2673 10.8325C58.5827 9.67132 58.8466 8.49081 59.0333 7.31674ZM48.9854 9.69836C47.8796 8.16897 48.186 5.88648 49.6433 4.81282C50.1067 4.47296 50.6397 4.29402 51.1804 4.29402C51.3284 4.29402 51.4778 4.30818 51.6271 4.33521C52.3686 4.47039 53.0252 4.92869 53.4758 5.62515C55.5883 8.89118 56.4547 13.0416 55.8574 17.0106L55.1532 21.6798L52.3957 15.5867C51.4495 13.4974 50.3011 11.5174 48.9854 9.69836ZM59.341 45.5217C58.5596 46.3032 57.688 47.0009 56.7508 47.5957L7.80278 78.6352C6.95828 79.1721 5.87432 79.0498 5.16627 78.343C4.45822 77.6349 4.33721 76.551 4.87404 75.7052L35.911 26.7597C36.5071 25.8213 37.2048 24.951 37.9927 24.1619C41.587 20.5688 46.6309 19.0742 51.5872 20.05L54.5996 26.707C54.6653 26.8511 54.7618 26.9722 54.8687 27.0803L54.8623 27.0867L56.4187 28.6432L56.4225 28.6393C56.5307 28.7474 56.653 28.8414 56.7984 28.9058L63.4567 31.9182C64.4376 36.8797 62.9404 41.9223 59.341 45.5217ZM78.6977 33.8685C77.6228 35.3246 75.3416 35.6297 73.8135 34.5277C71.9932 33.2107 70.0132 32.0624 67.9251 31.1175L61.832 28.3599L66.5013 27.6557C70.4689 27.0546 74.6219 27.9248 77.8867 30.0374C78.5832 30.4879 79.0402 31.1432 79.1766 31.886C79.3015 32.5735 79.1316 33.2777 78.6977 33.8685Z" fill="white"/>
<path d="M44.7228 38.7873C42.0606 36.125 40.5943 32.5848 40.5943 28.8192V28.7549L38.0195 28.8192C38.0195 33.2722 39.7536 37.4587 42.9025 40.6076C46.0514 43.7565 50.2379 45.4906 54.7552 45.4906L54.6908 42.9158C50.9253 42.9158 47.3851 41.4495 44.7228 38.7873Z" fill="white"/>
<path d="M37.4202 45.6465C35.3154 43.5417 34.1568 40.743 34.1568 37.7666H31.582C31.582 41.4317 33.0084 44.8754 35.5999 47.4669L36.0427 47.9097C38.6342 50.5012 42.0779 51.9276 45.743 51.9276V49.3528C42.7666 49.3528 39.9679 48.1942 37.8631 46.0894L37.4202 45.6465Z" fill="white"/>
<path d="M30.5614 52.9489C28.7295 51.1157 27.7202 48.6813 27.7202 46.0898V45.4912H25.1455V46.0898C25.1455 49.3687 26.4226 52.4507 28.7411 54.7692C31.0596 57.0878 34.1416 58.3648 37.4205 58.3648H38.0191V55.7901H37.4205C34.829 55.7901 32.3946 54.7808 30.5614 52.9489Z" fill="white"/>
<path d="M22.1939 61.3164C21.6068 60.7294 21.2837 59.948 21.2837 59.1189V57.0771H18.709V59.1189C18.709 60.6367 19.2999 62.0631 20.3735 63.1368C21.4472 64.2104 22.8736 64.8013 24.3914 64.8013H26.4331V62.2266H24.3914C23.5623 62.2266 22.7809 61.9035 22.1939 61.3164Z" fill="white"/>
</svg>
