<svg width="83" height="83" viewBox="0 0 83 83" fill="none" xmlns="http://www.w3.org/2000/svg">
<g clip-path="url(#clip0_1111_3930)">
<path d="M82.1942 13.7483C81.9511 13.4007 81.6 13.173 81.2175 13.0794C80.4392 12.8721 71.5575 10.6416 65.3302 14.9263C64.9228 15.2066 64.5388 15.5086 64.1756 15.8269C64.5662 12.8214 64.7691 9.77764 64.7691 6.71051C64.7691 5.78201 64.0165 5.02939 63.088 5.02939C62.1594 5.02939 61.4068 5.78201 61.4068 6.71051C61.4068 8.37732 61.3444 10.0301 61.2253 11.6678C57.7961 6.40718 50.9926 4.09155 49.8218 3.72513C49.4537 3.59077 49.0373 3.58385 48.6429 3.73543C48.2414 3.88959 47.933 4.18102 47.7509 4.53601C47.3993 5.18918 43.7345 12.2302 45.3825 18.8752C45.2396 18.871 45.0941 18.8837 44.9483 18.9179C44.5439 19.0128 44.2082 19.2466 43.9796 19.5572C43.5304 20.142 38.9701 26.2568 39.3105 32.915C37.7179 31.7684 36.3842 31.0671 35.9379 30.8433C35.5915 30.65 35.1754 30.5778 34.7576 30.6698C34.3596 30.7572 34.0257 30.9793 33.7934 31.2778C33.5916 31.5359 29.6994 36.5894 29.1436 42.56C27.9514 41.3674 26.9488 40.5805 26.5855 40.3065C26.2878 40.0591 25.9003 39.9093 25.4867 39.9193C25.0517 39.9257 24.6577 40.097 24.3629 40.3731C23.7728 40.9051 17.0521 47.1385 17.2499 54.7007C17.3952 60.1945 21.1934 64.7138 23.5909 67.028C16.8492 70.266 9.45302 72.4162 1.61254 73.2422C0.689346 73.3395 0.0195998 74.1668 0.116795 75.0902C0.207715 75.9538 0.937162 76.5953 1.78666 76.5953C1.84555 76.5953 1.90493 76.592 1.96479 76.5858C10.2792 75.7099 18.2843 73.3621 25.6518 69.7192C27.1699 72.1845 31.2835 77.9153 37.4356 79.3138C38.4245 79.5383 39.412 79.6368 40.3845 79.6368C46.5013 79.6366 51.9953 75.7397 53.1764 74.8396C53.3361 74.7379 53.4801 74.6082 53.6003 74.4536C53.9928 73.9486 54.0647 73.2645 53.7858 72.6889C53.6444 72.3972 51.0008 67.04 46.2275 63.7853C48.3545 64.8662 50.8576 65.7005 53.5258 65.7002C53.7577 65.7002 53.992 65.6938 54.2263 65.6809C61.4203 65.2797 66.7883 58.6083 67.8042 57.2498C67.9287 57.1094 68.0307 56.9467 68.1038 56.7669C68.3452 56.1722 68.2268 55.4918 67.7987 55.0135C67.6296 54.8245 65.0755 52.0129 61.3096 49.9912C63.3565 49.8987 65.4918 49.4679 67.4704 48.4477C73.8803 45.1402 76.049 36.8665 76.4214 35.2068C76.4764 35.032 76.5033 34.8466 76.4982 34.6572C76.4806 34.0105 76.0936 33.4313 75.503 33.1676C75.3265 33.0887 73.2648 32.1854 70.4075 31.6236C72.1416 31.2528 73.8753 30.6011 75.439 29.5245C81.5317 25.3305 82.3901 16.2954 82.487 14.9066C82.5327 14.5117 82.4396 14.0993 82.1942 13.7483ZM61.934 31.6818C61.2572 31.8592 60.586 32.0894 59.9288 32.3815C60.0612 32.0431 60.1904 31.7036 60.3176 31.3631C60.7471 31.4623 61.2942 31.5759 61.934 31.6818ZM50.1106 7.40198C52.5548 8.37667 57.6001 10.8518 59.2748 15.1795C60.9529 19.5155 59.017 24.7274 57.9314 27.084C56.7535 26.5868 54.9485 25.7096 53.2258 24.4141C52.4193 23.5319 51.5632 22.7524 50.7326 22.0796C50.0213 21.2285 49.4167 20.2728 49.004 19.2062C47.3347 14.8892 49.0954 9.75495 50.1106 7.40198ZM57.123 30.3816C57.0441 30.5913 56.9675 30.8021 56.8866 31.0106C56.8232 30.735 56.7513 30.4634 56.6698 30.1964C56.8301 30.2636 56.9815 30.3254 57.123 30.3816ZM45.8493 22.7635C46.5448 23.1813 47.4615 23.7802 48.4246 24.5409C49.1974 25.4161 50.0469 26.1921 50.9165 26.8702C52.1755 28.2879 53.2373 29.9838 53.6439 31.9128C54.6031 36.4621 51.8543 41.295 50.4041 43.4467C48.2344 42.0835 43.8236 38.8098 42.8597 34.2361C41.9061 29.7083 44.4691 24.9234 45.8493 22.7635ZM46.9818 45.1753C47.5549 45.5965 48.0898 45.956 48.5521 46.2484C47.9429 47.0826 47.3137 47.9014 46.6669 48.7057C46.8985 47.5683 47.0219 46.3818 46.9818 45.1753ZM35.6346 34.52C37.8904 35.8751 42.4726 39.1293 43.4296 43.6698C44.3888 48.2192 41.64 53.0521 40.1898 55.2036C38.0201 53.8404 33.6093 50.5667 32.6454 45.9932C31.691 41.4609 34.2547 36.6777 35.6346 34.52ZM40.5436 59.8109C41.313 60.516 42.5496 61.5578 44.1209 62.5719C43.2669 62.1674 42.3599 61.8417 41.4013 61.6241C40.514 61.4225 39.6265 61.3275 38.7497 61.3161C39.3554 60.8248 39.9534 60.3231 40.5436 59.8109ZM37.9005 57.7218C36.39 59.0074 34.8205 60.2272 33.1959 61.3765C34.1009 59.6154 34.7965 57.6174 34.9636 55.4817C36.0165 56.4098 37.0465 57.1581 37.9005 57.7218ZM20.6113 54.6116C20.4902 49.983 23.8745 45.7399 25.6211 43.8658C27.5954 45.6059 31.5156 49.6335 31.6379 54.2714C31.761 58.9189 28.1857 63.177 26.3711 65.0317C24.4829 63.2998 20.7349 59.2848 20.6113 54.6116ZM50.0676 72.9218C47.8791 74.3574 42.8977 77.1059 38.1805 76.0349C33.5074 74.9725 30.1284 70.4802 28.7188 68.2765C30.9369 66.7578 35.9754 63.84 40.6569 64.9029C45.3485 65.9678 48.6939 70.6556 50.0676 72.9218ZM64.2863 56.2612C62.61 58.1993 58.706 62.0633 54.0393 62.3233C49.4133 62.5826 45.0738 59.321 43.1512 57.6307C44.8323 55.6065 48.7436 51.5697 53.3765 51.3116C58.0196 51.0538 62.3793 54.5018 64.2863 56.2612ZM72.8067 35.7407C72.0682 38.1942 70.0828 43.3158 65.9288 45.4593C61.8115 47.5823 56.5194 46.3799 54.0736 45.622C54.7813 43.0875 56.7028 37.8059 60.8267 35.6781C64.9583 33.5461 70.3474 34.9134 72.8067 35.7407ZM73.5321 26.7546C69.7024 29.3915 64.1838 28.7148 61.64 28.2044C62.0632 25.677 63.3865 20.346 67.2366 17.6957C71.051 15.0714 76.4531 15.5958 78.9765 16.0384C78.594 18.6419 77.3546 24.1234 73.5321 26.7546Z" fill="white"/>
</g>
<defs>
<clipPath id="clip0_1111_3930">
<rect width="82.3911" height="82.3911" fill="white" transform="translate(0.105469 0.433594)"/>
</clipPath>
</defs>
</svg>
