<svg width="34" height="32" viewBox="0 0 34 32" fill="none" xmlns="http://www.w3.org/2000/svg">
<path fill-rule="evenodd" clip-rule="evenodd" d="M15.9234 0.875212L11.5948 9.66116L1.91456 11.0787C0.672547 11.2606 0.177532 12.7902 1.07671 13.6676L8.08 20.5017L6.42721 30.1566C6.21496 31.3964 7.51398 32.3419 8.62529 31.7564L17.2817 27.1954L25.9382 31.7564C27.0495 32.3419 28.3485 31.3964 28.1363 30.1566L26.4835 20.5017L33.4868 13.6676C34.386 12.7902 33.8909 11.2606 32.6489 11.0787L22.9687 9.66116L18.6401 0.875212C18.0844 -0.252675 16.4791 -0.252675 15.9234 0.875212ZM12.8201 12.5493C13.3129 12.4771 13.7389 12.1668 13.9593 11.7194L17.2817 4.97578L20.6042 11.7194C20.8246 12.1668 21.2506 12.4771 21.7434 12.5493L29.1754 13.6377L23.7989 18.8843C23.4416 19.233 23.2785 19.7355 23.3628 20.2281L24.6313 27.6383L17.9868 24.1374C17.5454 23.9049 17.0181 23.9049 16.5767 24.1374L9.93216 27.6383L11.2007 20.2281C11.285 19.7355 11.1219 19.233 10.7646 18.8843L5.38808 13.6377L12.8201 12.5493Z" fill="white"/>
</svg>
